<mxfile host="app.diagrams.net" modified="2023-05-10T07:37:32.290Z" agent="Mozilla/5.0 (Macintosh; Intel Mac OS X 10_15_7) AppleWebKit/537.36 (KHTML, like Gecko) Chrome/112.0.0.0 Safari/537.36" version="21.2.9" etag="F0l4h3cmn06twAMD1Tto" type="github">
  <diagram name="Page-1" id="kcoj7SUnzO-zrf9t933n">
    <mxGraphModel>
      <root>
        <mxCell id="0" />
        <mxCell id="1" parent="0" />
      </root>
    </mxGraphModel>
  </diagram>
</mxfile>
